<svg id="e4bea014-07e2-4419-b02b-d64bfb82be17" data-name="Frame" xmlns="http://www.w3.org/2000/svg" viewBox="0 0 277.54 584.26"><defs><style>.ea9480f5-6fb9-4aa5-98ef-9c4095f2f2e4{fill:#fff;}</style></defs><title>device-frame</title><path class="ea9480f5-6fb9-4aa5-98ef-9c4095f2f2e4" d="M256.77,10.37H39.23a30,30,0,0,0-30,30V564.63a30,30,0,0,0,30,30H256.77a30,30,0,0,0,30-30V40.37A30,30,0,0,0,256.77,10.37ZM185,23.14a3.77,3.77,0,1,1-3.76,3.77A3.77,3.77,0,0,1,185,23.14Zm-64.87,0H171a3.77,3.77,0,1,1,0,7.54H120.15a3.77,3.77,0,0,1,0-7.54ZM278,561.56a25,25,0,0,1-25,25H43.88a25,25,0,0,1-25-25V45a25,25,0,0,1,25-25H75.72v3.56a13,13,0,0,0,13,13H211.94a13,13,0,0,0,13-13V20H253a25,25,0,0,1,25,25Z" transform="translate(-9.23 -10.37)"/><path class="ea9480f5-6fb9-4aa5-98ef-9c4095f2f2e4" d="M236.84,572.69h-181a2.39,2.39,0,1,0,0,4.77H236.84a2.39,2.39,0,1,0,0-4.77Z" transform="translate(-9.23 -10.37)"/></svg>